<?xml version="1.0" standalone="no"?>
<!DOCTYPE svg PUBLIC "-//W3C//DTD SVG 20010904//EN"
 "http://www.w3.org/TR/2001/REC-SVG-20010904/DTD/svg10.dtd">
<svg version="1.0" xmlns="http://www.w3.org/2000/svg"
 width="576.000000pt" height="576.000000pt" viewBox="0 0 576.000000 576.000000"
 preserveAspectRatio="xMidYMid meet">
<metadata>
Created by potrace 1.14, written by Peter Selinger 2001-2017
</metadata>
<g transform="translate(0.000000,576.000000) scale(0.100000,-0.100000)"
fill="#000000" stroke="none">
<path d="M2487 5714 c-1 -1 -22 -4 -47 -7 -67 -9 -234 -45 -315 -68 -111 -32
-259 -81 -270 -89 -5 -4 -21 -11 -34 -15 -14 -4 -54 -21 -90 -38 -37 -17 -68
-31 -71 -32 -25 -6 -240 -125 -258 -142 -7 -7 -20 -13 -28 -13 -8 0 -14 -4
-14 -10 0 -5 -5 -10 -10 -10 -14 0 -173 -116 -280 -204 -115 -94 -297 -280
-395 -401 -43 -55 -84 -103 -90 -107 -5 -4 -7 -8 -3 -8 4 0 -10 -23 -31 -52
-61 -80 -246 -404 -257 -448 0 -3 -6 -16 -11 -30 -62 -143 -146 -396 -159
-480 -3 -19 -8 -38 -10 -41 -2 -3 -6 -19 -8 -35 -3 -16 -9 -40 -13 -54 -12
-41 -15 -937 -3 -1010 13 -87 13 -87 50 -230 30 -116 115 -365 139 -407 12
-21 60 -130 61 -141 1 -4 7 -14 14 -22 6 -8 25 -40 40 -70 16 -30 34 -62 40
-70 7 -8 21 -32 31 -52 11 -21 23 -38 27 -38 5 0 8 -5 8 -12 0 -6 11 -26 25
-44 14 -18 25 -37 25 -42 0 -6 3 -12 8 -14 4 -1 27 -30 52 -63 24 -33 49 -65
55 -72 5 -6 26 -30 45 -54 92 -112 251 -270 360 -359 24 -19 48 -39 54 -45 34
-30 96 -75 105 -75 5 0 11 -4 13 -8 3 -9 141 -102 168 -115 8 -4 33 -18 55
-31 155 -94 493 -241 604 -262 14 -3 28 -7 33 -10 4 -3 18 -7 30 -9 13 -3 59
-14 103 -24 44 -11 94 -22 110 -25 17 -3 41 -7 55 -10 14 -2 45 -7 70 -11 25
-3 59 -8 75 -11 144 -21 574 -21 675 1 14 3 50 8 80 11 30 3 71 9 90 14 19 5
51 12 70 15 61 10 151 35 285 77 72 23 132 42 135 42 3 1 10 4 15 8 6 3 50 22
98 42 49 20 121 53 160 73 40 20 75 36 80 35 4 -1 7 2 7 6 0 5 21 19 46 31 46
23 287 182 314 207 8 8 44 38 80 66 97 79 245 221 320 309 25 28 50 57 55 63
133 145 327 461 429 700 42 97 122 326 130 370 2 12 9 41 16 66 7 25 14 54 16
65 32 147 33 170 33 615 0 444 -1 458 -24 569 -14 62 -34 148 -46 190 -12 42
-22 81 -24 86 -1 6 -7 23 -13 38 -7 16 -12 32 -12 37 0 5 -6 24 -14 42 -8 18
-22 53 -32 78 -46 118 -151 334 -185 381 -10 15 -19 32 -19 38 0 6 -4 11 -10
11 -5 0 -10 5 -10 11 0 9 -103 167 -137 209 -7 8 -34 42 -60 75 -121 151 -322
353 -438 440 -22 16 -46 35 -53 42 -93 90 -549 350 -682 387 -14 4 -34 11 -45
16 -62 26 -143 52 -240 79 -265 71 -294 74 -743 75 -222 1 -404 1 -405 0z
m599 -288 c81 -7 142 -13 179 -20 245 -45 424 -94 552 -152 17 -8 34 -14 37
-14 11 0 164 -75 251 -123 85 -48 257 -158 281 -181 6 -6 22 -18 34 -26 12 -8
28 -19 34 -25 6 -5 41 -35 76 -65 80 -69 199 -188 265 -266 27 -32 52 -61 55
-64 16 -14 123 -166 179 -255 112 -180 259 -515 286 -654 2 -11 6 -25 9 -29 3
-5 8 -24 11 -43 3 -19 8 -41 10 -49 16 -57 45 -247 52 -345 16 -218 1 -511
-33 -667 -3 -13 -7 -32 -8 -43 -2 -11 -9 -42 -16 -70 -6 -27 -13 -57 -15 -65
-1 -8 -13 -49 -26 -90 -13 -41 -24 -77 -24 -80 -1 -3 -5 -14 -10 -25 -4 -11
-23 -60 -42 -110 -46 -117 -128 -278 -205 -401 -34 -55 -66 -103 -71 -109 -4
-5 -26 -35 -48 -65 -99 -134 -297 -338 -429 -443 -47 -37 -90 -71 -95 -75 -6
-5 -24 -17 -40 -28 -17 -10 -32 -21 -35 -25 -16 -19 -225 -137 -340 -193 -178
-85 -442 -174 -570 -192 -19 -2 -42 -7 -50 -9 -8 -3 -33 -7 -55 -10 -22 -4
-50 -8 -62 -10 -151 -25 -550 -26 -678 -1 -11 2 -42 7 -68 10 -27 4 -59 10
-70 12 -12 3 -31 7 -42 9 -11 2 -40 9 -65 15 -25 6 -52 12 -60 14 -26 5 -164
47 -185 56 -11 5 -45 17 -75 28 -30 11 -81 32 -112 46 -32 15 -61 27 -65 27
-5 1 -20 10 -35 21 -16 11 -28 17 -28 14 0 -3 -23 8 -50 24 -28 17 -53 30 -56
30 -8 0 -254 163 -284 189 -14 11 -30 24 -35 28 -95 72 -290 260 -362 349
-131 161 -205 266 -245 344 -7 14 -16 27 -19 30 -9 7 -155 309 -162 335 -3 11
-17 52 -31 90 -29 77 -70 221 -86 300 -5 28 -11 59 -14 70 -43 210 -54 591
-21 786 2 13 6 42 10 64 13 90 26 159 45 230 6 22 12 47 14 56 38 157 141 403
246 584 174 302 353 504 685 773 82 66 340 219 445 263 30 13 58 28 62 33 4 6
8 8 8 4 0 -4 28 5 63 21 34 15 65 29 70 29 25 5 63 16 72 21 6 3 15 7 20 8 6
1 42 12 80 23 39 11 79 22 90 24 11 2 33 7 50 12 16 4 41 8 55 10 14 1 25 3
25 4 0 2 33 9 80 16 65 10 95 13 190 20 50 3 91 7 92 8 5 4 238 -2 309 -8z"/>
<path d="M2500 3644 c-14 -10 -29 -22 -35 -28 -5 -6 -37 -31 -69 -56 -52 -39
-263 -204 -291 -228 -5 -4 -26 -19 -45 -32 -19 -14 -39 -31 -45 -37 -22 -27
-118 -92 -127 -86 -6 3 -16 20 -24 38 -49 118 -210 252 -355 295 -89 27 -107
29 -299 29 -91 0 -212 1 -270 2 -58 1 -112 1 -120 0 -8 -1 -23 -2 -32 -2 -15
0 -17 -46 -16 -609 l0 -608 326 3 c326 2 343 3 411 27 20 7 38 12 41 13 15 2
120 60 120 67 0 4 6 8 13 8 22 0 152 145 181 203 23 44 31 53 41 44 7 -7 28
-23 45 -37 18 -14 41 -33 51 -42 11 -10 21 -18 24 -18 5 0 152 -116 165 -130
3 -3 32 -25 65 -50 33 -25 74 -57 90 -73 17 -15 38 -30 48 -33 9 -3 17 -9 17
-14 0 -5 15 -18 33 -29 18 -11 44 -29 56 -41 13 -11 28 -20 33 -20 7 0 95 67
118 90 3 3 32 25 65 50 33 25 62 47 65 51 3 3 93 74 200 158 107 84 205 161
218 172 12 10 24 19 26 19 3 0 5 -78 5 -172 0 -95 0 -189 1 -209 0 -36 1 -36
43 -38 23 -1 63 -3 90 -4 26 -1 47 0 47 3 0 5 64 4 188 -2 28 -2 52 -1 52 2 0
5 84 4 188 -2 28 -2 52 -1 52 2 0 3 42 4 94 3 l94 -2 -1 177 -2 177 -200 2
c-110 0 -205 2 -211 2 -7 1 -10 136 -10 431 l1 430 -175 1 c-96 1 -179 0 -185
-1 -5 -2 -22 -2 -37 -1 -20 1 -28 -4 -29 -16 0 -10 -1 -106 -1 -213 l0 -195
-85 -65 c-46 -36 -89 -70 -96 -75 -7 -6 -32 -26 -57 -45 -25 -19 -47 -37 -50
-40 -3 -3 -21 -17 -40 -30 -19 -14 -42 -32 -52 -40 -9 -8 -23 -20 -30 -25 -7
-6 -33 -26 -58 -45 -24 -19 -51 -41 -59 -48 -50 -47 -57 -47 -113 -2 -29 23
-51 45 -48 48 8 10 83 70 338 270 127 101 232 186 232 190 -1 4 -29 28 -63 54
-34 25 -86 65 -115 88 -36 27 -58 38 -65 32 -7 -5 -100 -78 -207 -162 -107
-84 -207 -162 -221 -174 -14 -11 -41 -32 -59 -46 -18 -14 -45 -35 -60 -47
l-26 -21 -56 42 c-52 39 -55 44 -40 57 9 8 62 50 117 94 55 44 102 83 103 87
2 5 8 8 13 8 6 0 15 5 22 10 7 6 30 26 52 45 22 19 43 35 46 35 3 0 17 10 31
23 13 12 59 49 101 82 42 33 77 62 77 66 0 3 -14 17 -31 30 -18 13 -68 52
-112 87 -44 34 -83 62 -86 62 -4 0 -18 -7 -31 -16z m-1094 -482 c182 -93 178
-380 -6 -464 -31 -15 -71 -22 -131 -24 l-87 -4 -1 261 -1 261 92 -4 c68 -4
104 -11 134 -26z"/>
<path d="M4415 3541 c-2 -2 -54 -3 -115 -2 l-110 2 2 -613 c3 -539 5 -613 18
-609 8 2 51 3 95 2 92 -3 86 -3 185 -1 41 1 80 1 85 0 6 -1 13 -2 17 -1 15 2
133 3 143 1 6 -1 14 -2 18 -1 15 3 183 1 215 -2 18 -2 35 0 38 4 3 5 11 6 18
3 10 -4 14 10 15 62 1 36 4 70 7 75 3 5 2 9 -3 9 -8 0 -7 108 1 143 2 9 0 17
-6 17 -5 0 -7 4 -4 9 4 5 4 16 0 24 -4 12 -38 14 -210 13 -175 -1 -204 1 -205
14 -1 8 -2 202 -3 430 l-1 415 -98 5 c-54 3 -100 3 -102 1z"/>
<path d="M2717 33 c-1 -1 -24 -3 -50 -4 -26 -2 -47 -6 -47 -11 0 -4 127 -8
281 -8 263 1 330 5 227 16 -45 5 -407 11 -411 7z"/>
<path d="M2580 18 c0 -4 7 -8 15 -8 8 0 15 4 15 8 0 5 -7 9 -15 9 -8 0 -15 -4
-15 -9z"/>
<path d="M3190 20 c0 -5 5 -10 11 -10 5 0 7 5 4 10 -3 6 -8 10 -11 10 -2 0 -4
-4 -4 -10z"/>
<path d="M2548 13 c7 -3 16 -2 19 1 4 3 -2 6 -13 5 -11 0 -14 -3 -6 -6z"/>
</g>
</svg>
