<svg style="display:none;" xmlns="http://www.w3.org/2000/svg">
  <!-- <symbol id="" fill="none"></symbol> -->
  <symbol id="search" viewBox="0 0 20 20" fill="none">
    <path
      d="M18.9422 17.8579L14.3659 13.2817C15.613 11.7564 16.2262 9.81023 16.0785 7.84561C15.9309 5.88098 15.0338 4.04825 13.5729 2.7265C12.1119 1.40475 10.1987 0.6951 8.22919 0.744345C6.25964 0.79359 4.38437 1.59796 2.99126 2.99107C1.59814 4.38419 0.793773 6.25946 0.744528 8.229C0.695283 10.1985 1.40493 12.1117 2.72668 13.5727C4.04843 15.0337 5.88117 15.9307 7.84579 16.0784C9.81041 16.226 11.7566 15.6128 13.2818 14.3657L17.8581 18.942C18.0027 19.0817 18.1964 19.1589 18.3974 19.1572C18.5984 19.1554 18.7907 19.0748 18.9328 18.9327C19.075 18.7905 19.1556 18.5982 19.1574 18.3972C19.1591 18.1962 19.0818 18.0025 18.9422 17.8579ZM8.4334 14.5666C7.22033 14.5666 6.0345 14.2069 5.02587 13.5329C4.01724 12.859 3.23111 11.9011 2.76689 10.7804C2.30267 9.65963 2.18121 8.42641 2.41786 7.23665C2.65452 6.04689 3.23867 4.95403 4.09644 4.09626C4.95421 3.23849 6.04707 2.65434 7.23683 2.41768C8.42659 2.18102 9.65981 2.30248 10.7805 2.76671C11.9013 3.23093 12.8592 4.01706 13.5331 5.02569C14.2071 6.03432 14.5668 7.22014 14.5668 8.43321C14.565 10.0593 13.9182 11.6183 12.7683 12.7682C11.6185 13.918 10.0595 14.5648 8.4334 14.5666Z"
      fill="#292D32" />
  </symbol>
  <symbol id="user" viewBox="0 0 21 23" fill="none">
    <path
      d="M20.2232 21.8578V19.6184C20.2232 18.4306 19.7338 17.2914 18.8628 16.4515C17.9918 15.6115 16.8104 15.1396 15.5785 15.1396H6.2892C5.05736 15.1396 3.87597 15.6115 3.00492 16.4515C2.13388 17.2914 1.64453 18.4306 1.64453 19.6184V21.8578"
      stroke="#292D32" stroke-width="1.5" stroke-linecap="round" stroke-linejoin="round" />
    <path
      d="M10.9337 10.6607C13.4989 10.6607 15.5784 8.65548 15.5784 6.18191C15.5784 3.70835 13.4989 1.70312 10.9337 1.70312C8.36855 1.70312 6.28906 3.70835 6.28906 6.18191C6.28906 8.65548 8.36855 10.6607 10.9337 10.6607Z"
      stroke="#292D32" stroke-width="1.5" stroke-linecap="round" stroke-linejoin="round" />
  </symbol>
  <symbol id="signal" viewBox="0 0 24 24" fill="none">
    <g clip-path="url(#clip0_391_18)">
      <path
        d="M9.94939 6.94939C10.4932 6.40553 11.2309 6.1 12 6.1C12.7691 6.1 13.5068 6.40553 14.0506 6.94939C14.5945 7.49325 14.9 8.23087 14.9 9V21C14.9 21.7691 14.5945 22.5068 14.0506 23.0506C13.5068 23.5945 12.7691 23.9 12 23.9C11.2309 23.9 10.4932 23.5945 9.94939 23.0506C9.40553 22.5068 9.1 21.7691 9.1 21V9C9.1 8.23087 9.40553 7.49325 9.94939 6.94939ZM12.7778 21.7778C12.9841 21.5715 13.1 21.2917 13.1 21V9C13.1 8.70826 12.9841 8.42847 12.7778 8.22218C12.5715 8.01589 12.2917 7.9 12 7.9C11.7083 7.9 11.4285 8.01589 11.2222 8.22218C11.0159 8.42847 10.9 8.70826 10.9 9V21C10.9 21.2917 11.0159 21.5715 11.2222 21.7778C11.4285 21.9841 11.7083 22.1 12 22.1C12.2917 22.1 12.5715 21.9841 12.7778 21.7778Z"
        fill="#292D32" stroke="#FAFAFA" stroke-width="0.2" />
      <path
        d="M18.9494 0.94939C19.4932 0.405535 20.2309 0.1 21 0.1C21.7691 0.1 22.5068 0.405535 23.0506 0.94939C23.5945 1.49325 23.9 2.23087 23.9 3V21C23.9 21.7691 23.5945 22.5068 23.0506 23.0506C22.5068 23.5945 21.7691 23.9 21 23.9C20.2309 23.9 19.4932 23.5945 18.9494 23.0506C18.4055 22.5068 18.1 21.7691 18.1 21V3C18.1 2.23087 18.4055 1.49325 18.9494 0.94939ZM21.7778 21.7778C21.9841 21.5715 22.1 21.2917 22.1 21V3C22.1 2.70826 21.9841 2.42847 21.7778 2.22218C21.5715 2.01589 21.2917 1.9 21 1.9C20.7083 1.9 20.4285 2.01589 20.2222 2.22218C20.0159 2.42847 19.9 2.70826 19.9 3V21C19.9 21.2917 20.0159 21.5715 20.2222 21.7778C20.4285 21.9841 20.7083 22.1 21 22.1C21.2917 22.1 21.5715 21.9841 21.7778 21.7778Z"
        fill="#292D32" stroke="#FAFAFA" stroke-width="0.2" />
      <rect x="0.75" y="12.75" width="4.5" height="10.5" rx="2.25" stroke="#292D32" stroke-width="1.5" />
    </g>
    <defs>
      <clipPath id="clip0_391_18">
        <rect width="24" height="24" fill="white" />
      </clipPath>
    </defs>
  </symbol>
  <symbol id="favorite" viewBox="0 0 24 20" fill="none">
    <path fill="#292D32"
      d="M 17.296875 1.421875 C 19.898438 1.421875 22.015625 3.496094 22.015625 6.042969 C 22.015625 6.664062 21.835938 7.300781 21.535156 7.742188 C 19.871094 10.183594 14.183594 15.707031 11.855469 17.933594 C 9.527344 15.707031 3.835938 10.183594 2.171875 7.742188 C 1.867188 7.300781 1.691406 6.664062 1.691406 6.042969 C 1.691406 3.496094 3.808594 1.421875 6.410156 1.421875 C 8.152344 1.421875 9.75 2.359375 10.570312 3.871094 C 10.824219 4.332031 11.316406 4.621094 11.855469 4.621094 C 12.390625 4.621094 12.882812 4.332031 13.136719 3.871094 C 13.957031 2.359375 15.550781 1.421875 17.296875 1.421875 M 17.296875 0 C 14.9375 0 12.890625 1.300781 11.851562 3.203125 C 10.8125 1.300781 8.765625 0 6.40625 0 C 3 0 0.238281 2.703125 0.238281 6.042969 C 0.238281 6.933594 0.492188 7.839844 0.960938 8.535156 C 3.175781 11.777344 11.851562 19.910156 11.851562 19.910156 C 11.851562 19.910156 20.53125 11.777344 22.742188 8.535156 C 23.214844 7.839844 23.464844 6.933594 23.464844 6.042969 C 23.464844 2.703125 20.703125 0 17.296875 0 Z M 17.296875 0 " />
  </symbol>
  <symbol id="basket" viewBox="0 0 22 24" fill="none">
    <path
      d="M16.1158 7.69568V5.55802C16.1158 4.8919 15.9846 4.2323 15.7297 3.61689C15.4748 3.00147 15.1011 2.44229 14.6301 1.97127C14.1591 1.50026 13.5999 1.12662 12.9845 0.871711C12.3691 0.616798 11.7095 0.485596 11.0434 0.485596C10.3773 0.485596 9.71766 0.616798 9.10224 0.871711C8.48683 1.12662 7.92765 1.50026 7.45663 1.97127C6.98561 2.44229 6.61198 3.00147 6.35707 3.61689C6.10215 4.2323 5.97095 4.8919 5.97095 5.55802V10.6304C5.97095 10.8226 6.0473 11.0069 6.18319 11.1428C6.31909 11.2787 6.5034 11.3551 6.69558 11.3551C6.88777 11.3551 7.07208 11.2787 7.20798 11.1428C7.34387 11.0069 7.42022 10.8226 7.42022 10.6304V9.14494H13.2173V7.69568H7.42022V5.55802C7.42022 4.5971 7.80194 3.67553 8.48141 2.99606C9.16089 2.31658 10.0825 1.93486 11.0434 1.93486C12.0043 1.93486 12.9259 2.31658 13.6053 2.99606C14.2848 3.67553 14.6665 4.5971 14.6665 5.55802V10.5942C14.6665 10.7864 14.7429 10.9707 14.8788 11.1066C15.0147 11.2425 15.199 11.3188 15.3912 11.3188C15.5833 11.3188 15.7677 11.2425 15.9036 11.1066C16.0395 10.9707 16.1158 10.7864 16.1158 10.5942V9.14494H19.739V22.1883H2.34779V9.14494H4.52169V7.69568H0.898529V22.2535C0.898529 22.6206 1.04435 22.9726 1.30391 23.2322C1.56347 23.4918 1.9155 23.6376 2.28258 23.6376H19.8042C20.1712 23.6376 20.5233 23.4918 20.7828 23.2322C21.0424 22.9726 21.1882 22.6206 21.1882 22.2535V7.69568H16.1158Z"
      fill="#292D32" />
  </symbol>
  <symbol id="union" viewBox="0 0 25 39" fill="none">
    <path fill-rule="evenodd" clip-rule="evenodd"
      d="M23 13V26.5C23 32.299 18.299 37 12.5 37C6.70101 37 2 32.299 2 26.5V13C2 7.20101 6.70101 2.5 12.5 2.5C18.299 2.5 23 7.20101 23 13ZM0 13C0 6.09644 5.59644 0.5 12.5 0.5C19.4036 0.5 25 6.09644 25 13V26.5C25 33.4036 19.4036 39 12.5 39C5.59644 39 0 33.4036 0 26.5V13ZM11.5 20.5V29.5L13.5 29.5V20.5H11.5Z"
      fill="#33A9FF" />
  </symbol>
  <symbol id="arrow" viewBox="0 0 12 11" fill="none">
    <path
      d="M4.70806 1.63029L6.22623 0.0933748L11.5305 5.3976L6.22623 10.7018L4.70806 9.18366L7.40703 6.46595H0.97823V4.31052H7.40703L4.70806 1.63029Z"
      fill="white" />
  </symbol>
  <symbol id="arrow-long" viewBox="0 0 106 23" fill="none">
    <path d="M94 1L104.5 11.5M104.5 11.5L94 22M104.5 11.5H0" stroke="#292D32" stroke-width="1.5" />
  </symbol>
  <symbol id="card" viewBox="0 0 36 36" fill="none">
    <path d="M5.91241 23.8909L23.8917 5.91162" stroke="white" stroke-width="3" stroke-miterlimit="10"
      stroke-linecap="round" stroke-linejoin="round" />
    <path d="M16.7024 27.5015L18.5078 25.696" stroke="white" stroke-width="3" stroke-miterlimit="10"
      stroke-linecap="round" stroke-linejoin="round" />
    <path d="M20.7521 23.4539L24.348 19.858" stroke="white" stroke-width="3" stroke-miterlimit="10"
      stroke-linecap="round" stroke-linejoin="round" />
    <path
      d="M5.41828 15.405L15.4085 5.4148C18.5981 2.22516 20.1929 2.21011 23.3525 5.36966L30.7398 12.757C33.8993 15.9165 33.8843 17.5113 30.6946 20.701L20.7045 30.6912C17.5148 33.8808 15.92 33.8958 12.7605 30.7363L5.37314 23.349C2.2136 20.1894 2.2136 18.6097 5.41828 15.405Z"
      stroke="white" stroke-width="3" stroke-linecap="round" stroke-linejoin="round" />
    <path d="M3.00909 33.0978H33.1" stroke="white" stroke-width="3" stroke-linecap="round" stroke-linejoin="round" />
  </symbol>
  <symbol id="service" viewBox="0 0 36 36" fill="none">
    <path d="M12.5699 18.0001L16.1849 21.6302L23.4299 14.3701" stroke="white" stroke-width="3" stroke-linecap="round"
      stroke-linejoin="round" />
    <path
      d="M16.1249 3.67498C17.1599 2.78998 18.8549 2.78998 19.9049 3.67498L22.2749 5.71499C22.7249 6.10499 23.5649 6.41999 24.1649 6.41999H26.7149C28.3049 6.41999 29.6099 7.72499 29.6099 9.31499V11.865C29.6099 12.45 29.9249 13.305 30.3149 13.755L32.3549 16.125C33.2399 17.16 33.2399 18.855 32.3549 19.905L30.3149 22.275C29.9249 22.725 29.6099 23.565 29.6099 24.165V26.715C29.6099 28.305 28.3049 29.61 26.7149 29.61H24.1649C23.5799 29.61 22.7249 29.925 22.2749 30.315L19.9049 32.355C18.8699 33.24 17.1749 33.24 16.1249 32.355L13.7549 30.315C13.3049 29.925 12.4649 29.61 11.8649 29.61H9.26994C7.67994 29.61 6.37494 28.305 6.37494 26.715V24.15C6.37494 23.565 6.05994 22.725 5.68494 22.275L3.65995 19.89C2.78995 18.855 2.78995 17.175 3.65995 16.14L5.68494 13.755C6.05994 13.305 6.37494 12.465 6.37494 11.88V9.29999C6.37494 7.70999 7.67994 6.40499 9.26994 6.40499H11.8649C12.4499 6.40499 13.3049 6.08999 13.7549 5.69999L16.1249 3.67498Z"
      stroke="white" stroke-width="3" stroke-linecap="round" stroke-linejoin="round" />
  </symbol>
  <symbol id="people" viewBox="0 0 36 36" fill="none">
    <path
      d="M27 10.74C26.91 10.725 26.805 10.725 26.715 10.74C24.645 10.665 22.995 8.97 22.995 6.87C22.995 4.725 24.72 3 26.865 3C29.01 3 30.735 4.74 30.735 6.87C30.72 8.97 29.07 10.665 27 10.74Z"
      stroke="white" stroke-width="3" stroke-linecap="round" stroke-linejoin="round" />
    <path
      d="M25.455 21.66C27.51 22.005 29.775 21.645 31.365 20.58C33.48 19.17 33.48 16.86 31.365 15.45C29.76 14.385 27.465 14.025 25.41 14.385"
      stroke="white" stroke-width="3" stroke-linecap="round" stroke-linejoin="round" />
    <path
      d="M8.955 10.74C9.045 10.725 9.15 10.725 9.24 10.74C11.31 10.665 12.96 8.97 12.96 6.87C12.96 4.725 11.235 3 9.09 3C6.945 3 5.22 4.74 5.22 6.87C5.235 8.97 6.885 10.665 8.955 10.74Z"
      stroke="white" stroke-width="3" stroke-linecap="round" stroke-linejoin="round" />
    <path
      d="M10.5 21.66C8.445 22.005 6.18 21.645 4.59 20.58C2.475 19.17 2.475 16.86 4.59 15.45C6.195 14.385 8.49 14.025 10.545 14.385"
      stroke="white" stroke-width="3" stroke-linecap="round" stroke-linejoin="round" />
    <path
      d="M18 21.945C17.91 21.93 17.805 21.93 17.715 21.945C15.645 21.87 13.995 20.175 13.995 18.075C13.995 15.93 15.72 14.205 17.865 14.205C20.01 14.205 21.735 15.945 21.735 18.075C21.72 20.175 20.07 21.885 18 21.945Z"
      stroke="white" stroke-width="3" stroke-linecap="round" stroke-linejoin="round" />
    <path
      d="M13.635 26.6699C11.52 28.0799 11.52 30.3899 13.635 31.7999C16.035 33.4049 19.965 33.4049 22.365 31.7999C24.48 30.3899 24.48 28.0799 22.365 26.6699C19.98 25.0799 16.035 25.0799 13.635 26.6699Z"
      stroke="white" stroke-width="3" stroke-linecap="round" stroke-linejoin="round" />
  </symbol>
  <symbol id="box" viewBox="0 0 36 36" fill="none">
    <path
      d="M19.38 3.41492L29.145 8.7187C30.285 9.33823 30.285 11.1062 29.145 11.7257L19.38 17.0295C18.51 17.4979 17.49 17.4979 16.62 17.0295L6.855 11.7257C5.715 11.1062 5.715 9.33823 6.855 8.7187L16.62 3.41492C17.49 2.94649 18.51 2.94649 19.38 3.41492Z"
      stroke="white" stroke-width="3" stroke-linecap="round" stroke-linejoin="round" />
    <path
      d="M5.415 15.3069L14.49 19.8854C15.615 20.4596 16.335 21.6231 16.335 22.8924V31.5356C16.335 32.7898 15.03 33.5906 13.92 33.0316L4.845 28.4531C3.72 27.8789 3 26.7154 3 25.4461V16.8029C3 15.5487 4.305 14.7478 5.415 15.3069Z"
      stroke="white" stroke-width="3" stroke-linecap="round" stroke-linejoin="round" />
    <path
      d="M30.585 15.3069L21.51 19.8854C20.385 20.4596 19.665 21.6231 19.665 22.8924V31.5356C19.665 32.7898 20.97 33.5906 22.08 33.0316L31.155 28.4531C32.28 27.8789 33 26.7154 33 25.4461V16.8029C33 15.5487 31.695 14.7478 30.585 15.3069Z"
      stroke="white" stroke-width="3" stroke-linecap="round" stroke-linejoin="round" />
  </symbol>
  <symbol id="location" viewBox="0 0 38 38" fill="none">
    <path
      d="M19 21.2641C21.7283 21.2641 23.94 19.0524 23.94 16.3241C23.94 13.5958 21.7283 11.3841 19 11.3841C16.2717 11.3841 14.06 13.5958 14.06 16.3241C14.06 19.0524 16.2717 21.2641 19 21.2641Z"
      stroke="#48A4EB" stroke-width="3" />
    <path
      d="M5.73165 13.4425C8.85082 -0.269142 29.165 -0.253309 32.2683 13.4584C34.0892 21.5017 29.0858 28.31 24.7 32.5217C21.5175 35.5934 16.4825 35.5934 13.2842 32.5217C8.91415 28.31 3.91082 21.4859 5.73165 13.4425Z"
      stroke="#48A4EB" stroke-width="3" />
  </symbol>
  <symbol id="email" viewBox="0 0 36 36" fill="none">
    <path
      d="M25.5 30.75H10.5C6 30.75 3 28.5 3 23.25V12.75C3 7.5 6 5.25 10.5 5.25H25.5C30 5.25 33 7.5 33 12.75V23.25C33 28.5 30 30.75 25.5 30.75Z"
      stroke="#48A4EB" stroke-width="3" stroke-miterlimit="10" stroke-linecap="round" stroke-linejoin="round" />
    <path d="M25.5 13.5L20.805 17.25C19.26 18.48 16.725 18.48 15.18 17.25L10.5 13.5" stroke="#48A4EB" stroke-width="3"
      stroke-miterlimit="10" stroke-linecap="round" stroke-linejoin="round" />
  </symbol>
  <symbol id="tel" viewBox="0 0 34 34" fill="none">
    <path
      d="M31.955 26.495C31.955 27.035 31.835 27.59 31.58 28.13C31.325 28.67 30.995 29.18 30.56 29.66C29.825 30.47 29.015 31.055 28.1 31.43C27.2 31.805 26.225 32 25.175 32C23.645 32 22.01 31.64 20.285 30.905C18.56 30.17 16.835 29.18 15.125 27.935C13.4 26.675 11.765 25.28 10.205 23.735C8.66 22.175 7.265 20.54 6.02 18.83C4.79 17.12 3.8 15.41 3.08 13.715C2.36 12.005 2 10.37 2 8.81C2 7.79 2.18 6.815 2.54 5.915C2.9 5 3.47 4.16 4.265 3.41C5.225 2.465 6.275 2 7.385 2C7.805 2 8.225 2.09 8.6 2.27C8.99 2.45 9.335 2.72 9.605 3.11L13.085 8.015C13.355 8.39 13.55 8.735 13.685 9.065C13.82 9.38 13.895 9.695 13.895 9.98C13.895 10.34 13.79 10.7 13.58 11.045C13.385 11.39 13.1 11.75 12.74 12.11L11.6 13.295C11.435 13.46 11.36 13.655 11.36 13.895C11.36 14.015 11.375 14.12 11.405 14.24C11.45 14.36 11.495 14.45 11.525 14.54C11.795 15.035 12.26 15.68 12.92 16.46C13.595 17.24 14.315 18.035 15.095 18.83C15.905 19.625 16.685 20.36 17.48 21.035C18.26 21.695 18.905 22.145 19.415 22.415C19.49 22.445 19.58 22.49 19.685 22.535C19.805 22.58 19.925 22.595 20.06 22.595C20.315 22.595 20.51 22.505 20.675 22.34L21.815 21.215C22.19 20.84 22.55 20.555 22.895 20.375C23.24 20.165 23.585 20.06 23.96 20.06C24.245 20.06 24.545 20.12 24.875 20.255C25.205 20.39 25.55 20.585 25.925 20.84L30.89 24.365C31.28 24.635 31.55 24.95 31.715 25.325C31.865 25.7 31.955 26.075 31.955 26.495Z"
      stroke="#48A4EB" stroke-width="3" stroke-miterlimit="10" />
    <path d="M26.75 12.5C26.75 11.6 26.045 10.22 24.995 9.095C24.035 8.06 22.76 7.25 21.5 7.25" stroke="#48A4EB"
      stroke-width="3" stroke-linecap="round" stroke-linejoin="round" />
    <path d="M32 12.5C32 6.695 27.305 2 21.5 2" stroke="#48A4EB" stroke-width="3" stroke-linecap="round"
      stroke-linejoin="round" />
  </symbol>
  <symbol id="facebook" viewBox="0 0 38 38" fill="none">
    <circle cx="18.856" cy="18.856" r="17.356" stroke="#292D32" stroke-width="3" />
    <path
      d="M22.9521 19.9545L23.4407 16.5678H20.3841V14.3709C20.3841 13.4444 20.8112 12.5403 22.1802 12.5403H23.5699V9.65694C23.5699 9.65694 22.3087 9.4281 21.1029 9.4281C18.5855 9.4281 16.9401 11.0501 16.9401 13.9865V16.5678H14.1418V19.9545H16.9401V28.1418C18.0812 28.3316 19.2431 28.3316 20.3841 28.1418V19.9545H22.9521Z"
      fill="#292D32" />
  </symbol>
  <symbol id="whatsapp" viewBox="0 0 38 38" fill="none">
    <path
      d="M9.36724 33.3911L8.76998 33.0004L8.09002 33.2173C7.67666 33.3492 7.12251 33.5214 6.49304 33.717C5.6119 33.9907 4.58316 34.3103 3.5864 34.6295C3.69996 34.2695 3.81574 33.9016 3.92998 33.5356C4.36589 32.139 4.8171 30.656 4.93122 29.9866L5.03554 29.3748L4.67707 28.8681C2.67573 26.0395 1.5 22.5873 1.5 18.856C1.5 9.27056 9.27056 1.5 18.856 1.5C28.4415 1.5 36.212 9.27056 36.212 18.856C36.212 28.4415 28.4415 36.212 18.856 36.212C15.3514 36.212 12.0936 35.1749 9.36724 33.3911Z"
      stroke="#292D32" stroke-width="3" />
    <path
      d="M28.2839 24.824C28.2839 25.1635 28.2083 25.5123 28.0478 25.8517C27.8873 26.1911 27.6796 26.5117 27.4058 26.8134C26.9431 27.3225 26.4332 27.6902 25.8572 27.9259C25.2907 28.1616 24.677 28.2841 24.016 28.2841C23.0529 28.2841 22.0237 28.0579 20.9379 27.5959C19.852 27.1339 18.7662 26.5117 17.6898 25.7291C16.6039 24.9372 15.5747 24.0604 14.5927 23.0893C13.6202 22.1088 12.7421 21.0811 11.9584 20.0063C11.1841 18.9315 10.5609 17.8567 10.1077 16.7914C9.65447 15.7166 9.42786 14.6889 9.42786 13.7084C9.42786 13.0673 9.54116 12.4545 9.76777 11.8888C9.99439 11.3137 10.3532 10.7857 10.8536 10.3143C11.4579 9.72037 12.1189 9.4281 12.8176 9.4281C13.082 9.4281 13.3464 9.48467 13.5824 9.5978C13.8279 9.71094 14.0451 9.88065 14.215 10.1258L16.4056 13.2087C16.5756 13.4444 16.6983 13.6613 16.7833 13.8687C16.8683 14.0667 16.9155 14.2647 16.9155 14.4438C16.9155 14.6701 16.8494 14.8963 16.7172 15.1132C16.5945 15.33 16.4151 15.5563 16.1885 15.7826L15.4708 16.5274C15.367 16.6311 15.3198 16.7537 15.3198 16.9045C15.3198 16.9799 15.3292 17.0459 15.3481 17.1214C15.3764 17.1968 15.4048 17.2534 15.4236 17.3099C15.5936 17.621 15.8863 18.0264 16.3018 18.5167C16.7267 19.007 17.1799 19.5066 17.6709 20.0063C18.1808 20.506 18.6717 20.968 19.1722 21.3922C19.6632 21.8071 20.0692 22.0899 20.3902 22.2596C20.4374 22.2785 20.4941 22.3068 20.5602 22.335C20.6357 22.3633 20.7113 22.3728 20.7962 22.3728C20.9568 22.3728 21.0795 22.3162 21.1834 22.2125L21.901 21.5054C22.137 21.2697 22.3636 21.0906 22.5808 20.9774C22.798 20.8454 23.0151 20.7794 23.2512 20.7794C23.4306 20.7794 23.6194 20.8171 23.8272 20.902C24.0349 20.9868 24.2521 21.1094 24.4881 21.2697L27.6135 23.4853C27.859 23.655 28.0289 23.853 28.1328 24.0887C28.2272 24.3244 28.2839 24.5601 28.2839 24.824Z"
      fill="#292D32" />
  </symbol>
</svg>